HIERARCHY
ROOT hip
{
	OFFSET	0.00  0.00  0.00 
	CHANNELS 6 Xposition Yposition Zposition Xrotation Zrotation Yrotation
	JOINT waist
	{
		OFFSET	0.000000 2.191865 -0.079388
		CHANNELS 3 Xrotation Zrotation Yrotation
		JOINT abdomen
		{
			OFFSET	0.000000 2.770984 0.119082
			CHANNELS 3 Xrotation Zrotation Yrotation
			JOINT chest
			{
				OFFSET	0.000000 2.879627 -0.290598
				CHANNELS 3 Xrotation Zrotation Yrotation
				JOINT neck
				{
					OFFSET	0.000000 12.342733 -1.613748
					CHANNELS 3 Xrotation Zrotation Yrotation
					JOINT head
					{
						OFFSET	0.000000 4.485597 1.807195
						CHANNELS 3 Xrotation Zrotation Yrotation
						End Site
						{
							OFFSET 0.000000 7.191734 2.024398
						}
					}
				}
				JOINT lCollar
				{
					OFFSET	1.858774 10.237258 -1.915852
					CHANNELS 3 Zrotation Yrotation Xrotation
					JOINT lShldr
					{
						OFFSET	6.103279 0.000102 -0.038601
						CHANNELS 3 Zrotation Yrotation Xrotation
						JOINT lForeArm
						{
							OFFSET	10.574100 -0.365985 -0.655940
							CHANNELS 3 Zrotation Yrotation Xrotation
							JOINT lHand
							{
								OFFSET	13.213392 -0.641131 0.276866
								CHANNELS 3 Zrotation Yrotation Xrotation
								JOINT lThumb1
								{
									OFFSET	1.920964 -1.225712 1.722395
									CHANNELS 3 Zrotation Yrotation Xrotation
									JOINT lThumb2
									{
										OFFSET	0.248544 -0.143036 0.768265
										CHANNELS 3 Zrotation Yrotation Xrotation
										JOINT lThumb3
										{
											OFFSET	0.628484 -0.225174 0.508305
											CHANNELS 3 Zrotation Yrotation Xrotation
											End Site
											{
												OFFSET 0.831712 -0.207978 0.609962
											}
										}
									}
								}
								JOINT lIndex1
								{
									OFFSET	5.093442 -0.710319 1.829884
									CHANNELS 3 Zrotation Yrotation Xrotation
									JOINT lIndex2
									{
										OFFSET	0.889470 -0.051998 0.127073
										CHANNELS 3 Zrotation Yrotation Xrotation
										JOINT lIndex3
										{
											OFFSET	0.889570 -0.155981 0.127073
											CHANNELS 3 Zrotation Yrotation Xrotation
											End Site
											{
												OFFSET 0.797115 -0.294470 0.076252
											}
										}
									}
								}
								JOINT lMid1
								{
									OFFSET	5.154641 -0.519844 0.864111
									CHANNELS 3 Zrotation Yrotation Xrotation
									JOINT lMid2
									{
										OFFSET	0.928821 -0.051992 0.050831
										CHANNELS 3 Zrotation Yrotation Xrotation
										JOINT lMid3
										{
											OFFSET	0.984253 -0.311865 0.050831
											CHANNELS 3 Zrotation Yrotation Xrotation
											End Site
											{
												OFFSET 0.779717 -0.606438 -0.050831
											}
										}
									}
								}
								JOINT lRing1
								{
									OFFSET	4.924408 -0.754930 -0.235503
									CHANNELS 3 Zrotation Yrotation Xrotation
									JOINT lRing2
									{
										OFFSET	0.981624 -0.036924 -0.108278
										CHANNELS 3 Zrotation Yrotation Xrotation
										JOINT lRing3
										{
											OFFSET	0.805613 -0.205247 -0.041717
											CHANNELS 3 Zrotation Yrotation Xrotation
											End Site
											{
												OFFSET 0.667431 -0.470481 -0.035991
											}
										}
									}
								}
								JOINT lPinky1
								{
									OFFSET	4.535460 -0.816635 -1.006206
									CHANNELS 3 Zrotation Yrotation Xrotation
									JOINT lPinky2
									{
										OFFSET	0.690596 -0.064334 -0.168800
										CHANNELS 3 Zrotation Yrotation Xrotation
										JOINT lPinky3
										{
											OFFSET	0.598039 -0.111176 -0.071973
											CHANNELS 3 Zrotation Yrotation Xrotation
											End Site
											{
												OFFSET 0.422025 -0.290925 -0.035981
											}
										}
									}
								}
							}
						}
					}
				}
				JOINT rCollar
				{
					OFFSET	-1.858774 10.237258 -1.915852
					CHANNELS 3 Zrotation Yrotation Xrotation
					JOINT rShldr
					{
						OFFSET	-6.103279 0.000102 -0.038601
						CHANNELS 3 Zrotation Yrotation Xrotation
						JOINT rForeArm
						{
							OFFSET	-10.574100 -0.365985 -0.655940
							CHANNELS 3 Zrotation Yrotation Xrotation
							JOINT rHand
							{
								OFFSET	-13.213392 -0.641131 0.276866
								CHANNELS 3 Zrotation Yrotation Xrotation
								JOINT rIndex1
								{
									OFFSET	-5.093442 -0.710319 1.829884
									CHANNELS 3 Zrotation Yrotation Xrotation
									JOINT rIndex2
									{
										OFFSET	-0.889470 -0.051998 0.127073
										CHANNELS 3 Zrotation Yrotation Xrotation
										JOINT rIndex3
										{
											OFFSET	-0.889570 -0.155981 0.127073
											CHANNELS 3 Zrotation Yrotation Xrotation
											End Site
											{
												OFFSET -0.797115 -0.294470 0.076252
											}
										}
									}
								}
								JOINT rThumb1
								{
									OFFSET	-1.920964 -1.225712 1.722395
									CHANNELS 3 Zrotation Yrotation Xrotation
									JOINT rThumb2
									{
										OFFSET	-0.248544 -0.143036 0.768265
										CHANNELS 3 Zrotation Yrotation Xrotation
										JOINT rThumb3
										{
											OFFSET	-0.628484 -0.225174 0.508305
											CHANNELS 3 Zrotation Yrotation Xrotation
											End Site
											{
												OFFSET -0.831712 -0.207978 0.609962
											}
										}
									}
								}
								JOINT rMid1
								{
									OFFSET	-5.154641 -0.519844 0.864111
									CHANNELS 3 Zrotation Yrotation Xrotation
									JOINT rMid2
									{
										OFFSET	-0.928821 -0.051992 0.050831
										CHANNELS 3 Zrotation Yrotation Xrotation
										JOINT rMid3
										{
											OFFSET	-0.984253 -0.311865 0.050831
											CHANNELS 3 Zrotation Yrotation Xrotation
											End Site
											{
												OFFSET -0.779717 -0.606438 -0.050831
											}
										}
									}
								}
								JOINT rRing1
								{
									OFFSET	-4.924408 -0.754930 -0.235503
									CHANNELS 3 Zrotation Yrotation Xrotation
									JOINT rRing2
									{
										OFFSET	-0.981624 -0.036924 -0.108278
										CHANNELS 3 Zrotation Yrotation Xrotation
										JOINT rRing3
										{
											OFFSET	-0.805613 -0.205247 -0.041717
											CHANNELS 3 Zrotation Yrotation Xrotation
											End Site
											{
												OFFSET -0.667431 -0.470481 -0.035991
											}
										}
									}
								}
								JOINT rPinky1
								{
									OFFSET	-4.535460 -0.816635 -1.006206
									CHANNELS 3 Zrotation Yrotation Xrotation
									JOINT rPinky2
									{
										OFFSET	-0.690596 -0.064334 -0.168800
										CHANNELS 3 Zrotation Yrotation Xrotation
										JOINT rPinky3
										{
											OFFSET	-0.598039 -0.111176 -0.071973
											CHANNELS 3 Zrotation Yrotation Xrotation
											End Site
											{
												OFFSET -0.422025 -0.290925 -0.035981
											}
										}
									}
								}
							}
						}
					}
				}
			}
		}
	}
	JOINT lThigh
	{
		OFFSET	5.761895 -0.730553 0.000101
		CHANNELS 3 Xrotation Zrotation Yrotation
		JOINT lShin
		{
			OFFSET	-1.171020 -18.459274 1.627449
			CHANNELS 3 Xrotation Zrotation Yrotation
			JOINT lFoot
			{
				OFFSET	-0.883715 -16.872776 -3.357785
				CHANNELS 3 Xrotation Zrotation Yrotation
				JOINT lToe
				{
					OFFSET	1.287613 -2.778491 2.836049
					CHANNELS 3 Xrotation Yrotation Zrotation
					End Site
					{
						OFFSET 1.362641 -0.436631 3.828194
					}
				}
			}
		}
	}
	JOINT rThigh
	{
		OFFSET	-5.761895 -0.730553 0.000101
		CHANNELS 3 Xrotation Zrotation Yrotation
		JOINT rShin
		{
			OFFSET	1.171020 -18.459274 1.627449
			CHANNELS 3 Xrotation Zrotation Yrotation
			JOINT rFoot
			{
				OFFSET	0.883715 -16.872776 -3.357785
				CHANNELS 3 Xrotation Zrotation Yrotation
				JOINT rToe
				{
					OFFSET	-1.287613 -2.778491 2.836049
					CHANNELS 3 Xrotation Yrotation Zrotation
					End Site
					{
						OFFSET -1.362641 -0.436631 3.828194
					}
				}
			}
		}
	}
}
MOTION
Frames:     6
Frame Time: 0.033333
-42.633640 34.298592 95.218788 -5.368081 -9.114669 -108.237221 -11.699218 0.019513 -0.000832 -4.218750 0.009601 0.001787 30.615103 -0.828434 -5.050724 10.058858 -5.455052 -4.217172 4.010289 11.009178 -9.506725 3.471619 -1.161482 2.306962 -80.169678 6.279185 27.016779 -3.891915 -9.700607 25.466681 -2.921386 -1.427901 -2.278483 -0.018104 -0.003944 -0.010280 -0.015681 -0.006574 -0.010607 -0.015424 -0.007546 -0.010088 -4.768952 -10.130701 0.075307 6.136953 -2.542719 -1.329028 5.977931 -4.657061 -2.299399 -3.649124 -3.899469 -0.028462 6.809108 0.587538 -0.179242 17.693647 -7.762904 -4.920654 -10.319902 0.070951 -0.943652 10.744991 5.478974 1.944765 23.550476 -1.345739 0.354980 -14.307809 -5.634895 -4.544772 3.438662 12.909055 2.795864 29.599695 -4.046283 -0.184964 -3.451840 -0.127207 2.453357 69.254303 0.461915 18.350241 -3.017534 -12.364018 97.363678 -39.756100 9.158445 -5.090253 2.734022 8.307910 -0.104714 -6.224143 2.512025 -1.332358 -6.058117 4.747227 -2.337263 -0.001427 -0.010679 0.002670 -0.003851 -0.011809 -0.004022 -0.004104 -0.011405 -0.005351 1.926006 2.038767 -0.017843 -6.788700 -0.391102 -0.238138 -17.832827 7.798688 -4.938871 9.030812 -1.741597 -0.825117 -10.685586 -5.450859 1.935492 -23.598396 1.261770 0.420547 13.188667 4.331294 -3.999662 -3.178394 -12.874853 2.755607 -0.010665 -0.005522 -0.008007 -13.160951 2.391631 7.380031 69.128922 7.022533 -21.392492 -62.109734 42.105782 207.874405 4.666809 7.603515 -0.760056 -30.517086 8.005884 -10.058930 37.407467 -4.419223 -1.404390 -8.577449 -11.620261 -108.526382 5.713733 -3.485675 1.585544 
-44.517704 34.180450 94.625488 -4.407177 -9.766614 -112.506935 -11.699218 0.019513 -0.000832 -4.218750 0.009601 0.001787 32.034153 -1.142125 -4.468029 9.935226 -5.848972 -3.518946 4.369958 11.130300 -9.037803 2.543355 -1.044108 2.408650 -79.069313 5.041311 24.959278 -3.511911 -10.096691 24.578518 -2.891000 -0.972344 -2.223683 -0.018104 -0.003944 -0.010280 -0.015681 -0.006574 -0.010607 -0.015424 -0.007546 -0.010088 -4.768952 -10.130701 0.075307 6.136953 -2.542719 -1.329028 5.977931 -4.657061 -2.299399 -3.649124 -3.899469 -0.028462 6.809108 0.587538 -0.179242 17.693647 -7.762904 -4.920654 -10.319902 0.070951 -0.943652 10.744991 5.478974 1.944765 23.550476 -1.345739 0.354980 -14.307809 -5.634895 -4.544772 3.438662 12.909055 2.795864 29.599695 -4.046283 -0.184964 -3.676733 0.195124 2.396290 68.896812 2.349599 18.404079 -3.381785 -8.198690 93.781494 -37.107841 11.633693 -5.311078 2.734022 8.307910 -0.104714 -6.224143 2.512025 -1.332358 -6.058117 4.747227 -2.337263 -0.001427 -0.010679 0.002670 -0.003851 -0.011809 -0.004022 -0.004104 -0.011405 -0.005351 1.926006 2.038767 -0.017843 -6.788700 -0.391102 -0.238138 -17.832827 7.798688 -4.938871 9.030812 -1.741597 -0.825117 -10.685586 -5.450859 1.935492 -23.598396 1.261770 0.420547 13.188667 4.331294 -3.999662 -3.178394 -12.874853 2.755607 -0.010665 -0.005522 -0.008007 -19.583757 2.125509 7.488723 79.556137 6.144660 -20.812315 -56.000149 54.156612 204.091568 4.666809 7.603515 -0.760056 -27.927156 9.489308 -9.036394 39.015728 -5.103660 -0.274300 -7.118105 -9.629489 -109.782288 5.713733 -3.485675 1.585544 
-46.153278 34.548706 93.878113 -3.763495 -10.056525 -116.029495 -11.699218 0.019513 -0.000832 -4.218750 0.009601 0.001787 32.763248 -1.725613 -3.781881 10.054484 -6.310360 -3.120272 5.300229 11.466358 -8.854014 2.201191 -0.799909 2.474828 -77.492699 3.159525 21.678516 -3.666271 -10.088643 21.599703 -2.660086 0.510738 -2.051205 -0.018104 -0.003944 -0.010280 -0.015681 -0.006574 -0.010607 -0.015424 -0.007546 -0.010088 -4.768952 -10.130701 0.075307 6.136953 -2.542719 -1.329028 5.977931 -4.657061 -2.299399 -3.649124 -3.899469 -0.028462 6.809108 0.587538 -0.179242 17.693647 -7.762904 -4.920654 -10.319902 0.070951 -0.943652 10.744991 5.478974 1.944765 23.550476 -1.345739 0.354980 -14.307809 -5.634895 -4.544772 3.438662 12.909055 2.795864 29.599695 -4.046283 -0.184964 -3.911392 0.439337 2.339257 68.517487 3.548275 19.156975 -3.698683 -2.841798 90.058052 -33.943241 13.585470 -5.445091 2.734022 8.307910 -0.104714 -6.224143 2.512025 -1.332358 -6.058117 4.747227 -2.337263 -0.001427 -0.010679 0.002670 -0.003851 -0.011809 -0.004022 -0.004104 -0.011405 -0.005351 1.926006 2.038767 -0.017843 -6.788700 -0.391102 -0.238138 -17.832827 7.798688 -4.938871 9.030812 -1.741597 -0.825117 -10.685586 -5.450859 1.935492 -23.598396 1.261770 0.420547 13.188667 4.331294 -3.999662 -3.178394 -12.874853 2.755607 -0.010665 -0.005522 -0.008007 -27.634905 1.711469 7.510410 88.832397 4.989896 -17.050926 -55.031395 46.625156 206.984024 4.666809 7.603515 -0.760056 -24.525665 10.499820 -7.840163 37.837032 -5.824504 0.809974 -5.963177 -8.184579 -110.998253 5.713733 -3.485675 1.585544 
-47.737278 35.323166 92.972931 -3.807559 -10.679463 -119.267197 -11.699218 0.019513 -0.000832 -4.218750 0.009601 0.001787 33.427803 -3.276769 -2.879675 9.834407 -6.583632 -2.935825 6.569261 11.877990 -8.762584 2.601534 -0.321424 2.486888 -75.741982 1.110693 18.669115 -4.379205 -10.744490 17.202732 -1.776987 2.566496 -1.836938 -0.018104 -0.003944 -0.010280 -0.015681 -0.006574 -0.010607 -0.015424 -0.007546 -0.010088 -4.768952 -10.130701 0.075307 6.136953 -2.542719 -1.329028 5.977931 -4.657061 -2.299399 -3.649124 -3.899469 -0.028462 6.809108 0.587538 -0.179242 17.693647 -7.762904 -4.920654 -10.319902 0.070951 -0.943652 10.744991 5.478974 1.944765 23.550476 -1.345739 0.354980 -14.307809 -5.634895 -4.544772 3.438662 12.909055 2.795864 29.599695 -4.046283 -0.184964 -4.380368 0.380886 2.303131 68.528870 4.401362 20.080990 -3.995914 2.311543 87.195061 -31.259380 14.616858 -5.473104 2.734022 8.307910 -0.104714 -6.224143 2.512025 -1.332358 -6.058117 4.747227 -2.337263 -0.001427 -0.010679 0.002670 -0.003851 -0.011809 -0.004022 -0.004104 -0.011405 -0.005351 1.926006 2.038767 -0.017843 -6.788700 -0.391102 -0.238138 -17.832827 7.798688 -4.938871 9.030812 -1.741597 -0.825117 -10.685586 -5.450859 1.935492 -23.598396 1.261770 0.420547 13.188667 4.331294 -3.999662 -3.178394 -12.874853 2.755607 -0.010665 -0.005522 -0.008007 -35.855652 0.799651 8.215238 96.241821 3.767269 -12.482366 -50.538193 17.243238 -150.277420 4.666809 7.603515 -0.760056 -20.117266 10.379382 -6.522293 34.842548 -6.500305 3.358680 -5.126042 -6.567258 -111.456757 5.713733 -3.485675 1.585544 
-49.397495 36.385647 91.911827 -4.460706 -11.893581 -122.740402 -11.699218 0.019513 -0.000832 -4.218750 0.009601 0.001787 33.795151 -5.954342 -1.582114 9.964439 -6.643113 -2.795078 7.767508 12.136322 -8.565500 3.304924 -0.018809 2.452038 -73.965034 -0.390867 16.745689 -5.417686 -12.366990 12.646656 -0.336300 4.410967 -1.674134 -0.018104 -0.003944 -0.010280 -0.015681 -0.006574 -0.010607 -0.015424 -0.007546 -0.010088 -4.768952 -10.130701 0.075307 6.136953 -2.542719 -1.329028 5.977931 -4.657061 -2.299399 -3.649124 -3.899469 -0.028462 6.809108 0.587538 -0.179242 17.693647 -7.762904 -4.920654 -10.319902 0.070951 -0.943652 10.744991 5.478974 1.944765 23.550476 -1.345739 0.354980 -14.307809 -5.634895 -4.544772 3.438662 12.909055 2.795864 29.599695 -4.046283 -0.184964 -4.946993 0.185775 2.277337 68.811615 4.655166 20.823689 -4.357701 6.203732 85.579597 -29.576603 14.872723 -5.437659 2.734022 8.307910 -0.104714 -6.224143 2.512025 -1.332358 -6.058117 4.747227 -2.337263 -0.001427 -0.010679 0.002670 -0.003851 -0.011809 -0.004022 -0.004104 -0.011405 -0.005351 1.926006 2.038767 -0.017843 -6.788700 -0.391102 -0.238138 -17.832827 7.798688 -4.938871 9.030812 -1.741597 -0.825117 -10.685586 -5.450859 1.935492 -23.598396 1.261770 0.420547 13.188667 4.331294 -3.999662 -3.178394 -12.874853 2.755607 -0.010665 -0.005522 -0.008007 -43.212002 -0.237610 10.314734 101.759010 2.551341 -9.740123 -45.232117 10.294635 -147.634064 4.666809 7.603515 -0.760056 -15.312633 8.918425 -5.299817 31.459009 -6.958877 7.515201 -5.008577 -3.567299 -111.464516 5.713733 -3.485675 1.585544 
-51.117775 37.648426 90.697197 -5.091612 -13.545811 -126.692612 -11.699218 0.019513 -0.000832 -4.218750 0.009601 0.001787 33.812000 -9.003895 0.121902 11.209554 -6.557347 -2.554816 8.165458 12.025108 -8.128863 4.018319 -0.145958 2.368565 -72.451363 -1.098611 15.977526 -6.186096 -14.156655 9.836579 0.852435 5.403259 -1.604999 -0.018104 -0.003944 -0.010280 -0.015681 -0.006574 -0.010607 -0.015424 -0.007546 -0.010088 -4.768952 -10.130701 0.075307 6.136953 -2.542719 -1.329028 5.977931 -4.657061 -2.299399 -3.649124 -3.899469 -0.028462 6.809108 0.587538 -0.179242 17.693647 -7.762904 -4.920654 -10.319902 0.070951 -0.943652 10.744991 5.478974 1.944765 23.550476 -1.345739 0.354980 -14.307809 -5.634895 -4.544772 3.438662 12.909055 2.795864 29.599695 -4.046283 -0.184964 -5.298753 0.107795 2.250227 68.934128 4.331516 21.299572 -4.527566 8.242905 85.043373 -28.865826 14.686649 -5.381755 2.734022 8.307910 -0.104714 -6.224143 2.512025 -1.332358 -6.058117 4.747227 -2.337263 -0.001427 -0.010679 0.002670 -0.003851 -0.011809 -0.004022 -0.004104 -0.011405 -0.005351 1.926006 2.038767 -0.017843 -6.788700 -0.391102 -0.238138 -17.832827 7.798688 -4.938871 9.030812 -1.741597 -0.825117 -10.685586 -5.450859 1.935492 -23.598396 1.261770 0.420547 13.188667 4.331294 -3.999662 -3.178394 -12.874853 2.755607 -0.010665 -0.005522 -0.008007 -49.203171 -0.873625 13.239696 105.322906 1.488009 -8.771743 -40.926186 4.653051 -147.640381 4.666809 7.603515 -0.760056 -10.913173 6.570388 -4.564274 28.914618 -7.290471 11.962991 -6.149478 1.595695 -112.157600 5.713733 -3.485675 1.585544 
